# xmcd
# 
# Track frame offsets:
#     150
#     16612
#     35069
#     50578
#     68924
#     87103
#     110776
#     127271
#     147666
#     167515
#     181001
#     212555
#     251098
# 
# Disc length: 3552
# 
# Revision: 5
# Processed by: cddbd v1.5.2PL0 Copyright (c) Steve Scherf et al.
# Submitted via: fre:ac v1.0.27
# 
DISCID=bb0dde0d
DTITLE=Gemma Hayes - Night On My Side
DYEAR=2003
DGENRE=Folk-influenced IRE/UK Rock
TTITLE0=Hanging Around
TTITLE1=Back Of My Hand
TTITLE2=Let A Good Thing Go
TTITLE3=Tear N My Side
TTITLE4=Work To A Calm
TTITLE5=Lucky One
TTITLE6=Making Waves
TTITLE7=Ran For Miles
TTITLE8=My God
TTITLE9=4:35 Am
TTITLE10=I Wanna Stay
TTITLE11=Evening Sun
TTITLE12=Let A Good Thing Be (Video)
EXTD=YEAR: 2000
EXTT0=
EXTT1=
EXTT2=
EXTT3=
EXTT4=
EXTT5=
EXTT6=
EXTT7=
EXTT8=
EXTT9=
EXTT10=
EXTT11=
EXTT12=
PLAYORDER=
